<svg id="Calque_1" data-name="Calque 1" xmlns="http://www.w3.org/2000/svg" xmlns:xlink="http://www.w3.org/1999/xlink" viewBox="0 0 122.34 101.64"><defs><style>.cls-1{fill:url(#Dégradé_sans_nom_20);}</style><linearGradient id="Dégradé_sans_nom_20" x1="14.32" y1="23.33" x2="124.47" y2="115.76" gradientUnits="userSpaceOnUse"><stop offset="0.11" stop-color="#e79118"/><stop offset="0.74" stop-color="#9d6bef"/></linearGradient></defs><title>orinoco_logo</title><path class="cls-1" d="M133.92,37.2l-11.67,53h-76l-8.9,18H34l8.72-18.62L27.42,38.22l-4-8.91a.79.79,0,0,0-.71-.45l-7.38,0a.77.77,0,0,0-.78.77v.5a.77.77,0,0,1-.77.77H12.36a.78.78,0,0,1-.78-.77V26.87a.78.78,0,0,1,.78-.77h13a.77.77,0,0,1,.71.46L30.75,37.2ZM38.71,111.11A8.32,8.32,0,1,0,47,119.43,8.32,8.32,0,0,0,38.71,111.11Zm71.82,0a8.32,8.32,0,1,0,8.32,8.32A8.32,8.32,0,0,0,110.53,111.11Zm-60.28,5.11H98l3.2-3H47.47Z" transform="translate(-11.58 -26.1)"/></svg>